# xmcd
#
# Track frame offsets:
#	150
#	21269
#	37894
#	56622
#	72806
#	88291
#	107040
#	124242
#	140729
#	157449
#	180065
#	195852
#	212962
#	233174
#	253195
#	272621
#	289442
#	306001
#	324179
#	340182
#
# Disc length: 4740 seconds
#
# Revision: 1
# Processed by: cddbd v1.5.1PL2 Copyright (c) Steve Scherf et al.
# Submitted via: EasyCDDAExtractor 9.0.0.1
#
DISCID=29128214
DTITLE=Various Artist - Grand Collection
DYEAR=2000
DGENRE=Pop
TTITLE0=Chris Norman - Sarah
TTITLE1=Chris Norman - Oh Carol
TTITLE2=Chris Norman - Hearts Livin' On Emotion
TTITLE3=Chris Norman - Don't Fence Me In
TTITLE4=Chris Norman - Living Next Door To Alice
TTITLE5=Chris Norman - Walkin' In The Rain
TTITLE6=Chris Norman - Babe
TTITLE7=Chris Norman - Goodbye Lady Blue
TTITLE8=Chris Norman - Some Hearts Are Diamond
TTITLE9=Chris Norman - Midnight Lady
TTITLE10=Chris Norman - Love Is...
TTITLE11=Chris Norman - Hunters Of The Night
TTITLE12=Chris Norman - For The Good Years
TTITLE13=Chris Norman - Woman In Love
TTITLE14=Chris Norman - Here Comes The Night
TTITLE15=Chris Norman - No Arms Can Ever Hold You
TTITLE16=Chris Norman - Baby It's You
TTITLE17=Chris Norman - Stay
TTITLE18=Chris Norman - Lucy Brown
TTITLE19=Chris Norman and Shari Belafonte - I Want To Be Needed
EXTD=
EXTT0=
EXTT1=
EXTT2=
EXTT3=
EXTT4=
EXTT5=
EXTT6=
EXTT7=
EXTT8=
EXTT9=
EXTT10=
EXTT11=
EXTT12=
EXTT13=
EXTT14=
EXTT15=
EXTT16=
EXTT17=
EXTT18=
EXTT19=
PLAYORDER=
